# xmcd
#
# Track frame offsets:
#	150
#	17135
#	33575
#	48080
#	64090
#	84510
#	101440
#	120225
#	138705
#	156305
#	170885
#	189545
#	204235
#	220140
#	233880
#
# Disc length: 3375 seconds
#
# Revision: 0
# Processed by: cddbd v1.5.1PL0 Copyright (c) Steve Scherf et al.
# Submitted via: audiograbber 1.83.01
#
DISCID=cd0d2d0f
DTITLE=Various Artist - Beach Music Mermaids - Makin' Waves
DYEAR=1900
DGENRE=Beach Music
TTITLE0=Teresa James - Nobody Rings My Bell (Quite Like That)
TTITLE1=Casey York - Just A Fool
TTITLE2=Barbara Carr - Sick and Tired Of Your Mess
TTITLE3=Susan Trexler - Only Love Can Mend A Broken Heart
TTITLE4=Sissy Quinn - Dance With A Stranger
TTITLE5=Terri Gore - Separate Places
TTITLE6=Karen Benfield - *831
TTITLE7=Teresa James - Just When I Thought
TTITLE8=Casey York - Last Second Of Time
TTITLE9=Terri Gore - Sugar Daddy
TTITLE10=Barbara Carr - Mr. Big Mouth
TTITLE11=Karen Benfield - Ka-Ching
TTITLE12=Donna Vallance - Twist Of Fate
TTITLE13=Susan Trexler - Whole Lotta Me
TTITLE14=Sissy Quinn - Young Hearts Run Free
EXTD=
EXTT0=
EXTT1=
EXTT2=
EXTT3=
EXTT4=
EXTT5=
EXTT6=
EXTT7=
EXTT8=
EXTT9=
EXTT10=
EXTT11=
EXTT12=
EXTT13=
EXTT14=
PLAYORDER=
